{"title":"Vanishing.On.7th.Street.2011.BDRip.XVID.AC3.HQ.Hive-CM8","uid":6400569,"size":1589768187,"categoryP":"video","categoryS":"movies","magnet":"?xt=urn:btih:6609c90ddf82201b08700ef96a21d2851c0c8595&amp;dn=Vanishing.On.7th.Street.2011.BDRip.XVID.AC3.HQ.Hive-CM8&amp;tr=udp%3A%2F%2Ftracker.openbittorrent.com%3A80&amp;tr=udp%3A%2F%2Fopen.demonii.com%3A1337&amp;tr=udp%3A%2F%2Ftracker.coppersurfer.tk%3A6969&amp;tr=udp%3A%2F%2Fexodus.desync.com%3A6969","seeders":2,"leechers":0,"uploader":"sceneline","files":6,"time":1305650552,"description":"- &lt;a href=&quot;\nhttp://www.Speed.Cd&quot; rel=&quot;nofollow&quot; target=&quot;_NEW&quot;&gt;\nhttp://www.Speed.Cd&lt;/a&gt; \n       &lt;a href=&quot;\nhttp://www.Speed.Cd&quot; rel=&quot;nofollow&quot; target=&quot;_NEW&quot;&gt;\nhttp://www.Speed.Cd&lt;/a&gt;       the fast  and The Hottest Private Tracker on the net\n\nPlease Seed back to make the speed Faster!!!\n\nand don't forget to visit      ...... http://www.Speed.Cd..........\n-[img]http://img542.imageshack.us/img542/8839/vanishin.jpg[/img]\n\n[color=blue][size=5][b]Vanishing.On.7th.Street.2011.BDRip.XVID.AC3.HQ.Hive-CM8[/b][/size][/color]\n\n\n[b]Thx Hive\n\nCM8 Doing It Right The First Time :D\n\nSource Bluray\n\nVideo: 720x304 @bitrate 1850 2pass\nAudio: DTS to AC3 5.1 @448\nSample: yes included\nSubs: yes english in srt /subs[/b]\n\n\n[url]http://www.imdb.com/title/tt1452628/[/url]\n\n\nGeneral\nComplete name                    : Vanishing.On.7th.Street.2011.BDRip.XVID.AC3.HQ.Hive-CM8.avi\nFormat                           : AVI\nFormat/Info                      : Audio Video Interleave\nFile size                        : 1.47 GiB\nDuration                         : 1h 31mn\nOverall bit rate                 : 2 312 Kbps\nWriting application              : Nandub v1.0rc2\nWriting library                  : Nandub build 1853/release\n\nVideo\nID                               : 0\nFormat                           : MPEG-4 Visual\nFormat profile                   : Advanced Simple@L5\nFormat settings, BVOP            : 1\nFormat settings, QPel            : Yes\nFormat settings, GMC             : No warppoints\nFormat settings, Matrix          : Default (H.263)\nMuxing mode                      : Packed bitstream\nCodec ID                         : XVID\nCodec ID/Hint                    : XviD\nDuration                         : 1h 31mn\nBit rate                         : 1 854 Kbps\nWidth                            : 720 pixels\nHeight                           : 304 pixels\nDisplay aspect ratio             : 2.40:1\nFrame rate                       : 23.976 fps\nColor space                      : YUV\nChroma subsampling               : 4:2:0\nBit depth                        : 8 bits\nScan type                        : Progressive\nCompression mode                 : Lossy\nBits/(Pixel*Frame)               : 0.353\nStream size                      : 1.18 GiB (80%)\nWriting library                  : XviD 1.2.1 (UTC 2008-12-04)\n\nAudio\nID                               : 1\nFormat                           : AC-3\nFormat/Info                      : Audio Coding 3\nMode extension                   : CM (complete main)\nCodec ID                         : 2000\nDuration                         : 1h 31mn\nBit rate mode                    : Constant\nBit rate                         : 448 Kbps\nChannel(s)                       : 6 channels\nChannel positions                : Front: L C R, Side: L R, LFE\nSampling rate                    : 48.0 KHz\nBit depth                        : 16 bits\nCompression mode                 : Lossy\nStream size                      : 292 MiB (19%)\nAlignment                        : Split accross interleaves\nInterleave, duration             : 42 ms (1.00 video frame)\nInterleave, preload duration     : 500 ms\n\n\n\nHayden Christensen ... \tLuke\nJohn Leguizamo\t... \tPaul\nThandie Newton\t... \tRosemary\nJacob Latimore\t... \tJames\nTaylor Groothuis ... \tBriana\nJordan Trovillion ... \tConcession Girl\nArthur Cartwright ... \tSecurity Guard\n\n\nWhen a massive power outage plunges the city of Detroit into total darkness, \na disparate group of individuals find themselves alone. The entire city's \npopulation has vanished into thin air, leaving behind heaps of empty clothing, \nabandoned cars and lengthening shadows.\n \n\n\n[img]http://img803.imageshack.us/img803/9767/99318033.png[/img]\n[img]http://img196.imageshack.us/img196/923/vvaa.png[/img]\n[img]http://img845.imageshack.us/img845/7163/vvavaa.png[/img]\n[img]http://img42.imageshack.us/img42/1466/vvavavaa.png[/img]\n[img]http://img146.imageshack.us/img146/3492/vvavavavaa.png[/img]\n[img]http://img812.imageshack.us/img812/6771/vvavavavvaaa.png[/img]\n\n\n\n\n\nGreetz\n\nViSiON,LUSi,SANTi,MAGNET,THC,T0XiCiNK,LKRG,IMAGiNE,WBZ,FLAWL3SS,NOVA\nVik,OneTwo,Rapeseed,D2U,SAFC,goldadvance,MEMORY100,KaN1vE,Unevano,Mr Hive\nand all P2P groups \nGreat Work Guys :D\n\n&lt;a class=&quot;__cf_email__&quot; href=&quot;/cdn-cgi/l/email-protection&quot; data-cfemail=&quot;b6f5fb8ef6dec3c5dedbd7dfda98d5d9db&quot;&gt;[email&amp;#160;protected]&lt;/a&gt;&lt;script cf-hash='f9e31' type=&quot;text/javascript&quot;&gt;\n/* &lt;![CDATA[ */!function(){try{var t=&quot;currentScript&quot;in document?document.currentScript:function(){for(var t=document.getElementsByTagName(&quot;script&quot;),e=t.length;e--;)if(t[e].getAttribute(&quot;cf-hash&quot;))return t[e]}();if(t&amp;&amp;t.previousSibling){var e,r,n,i,c=t.previousSibling,a=c.getAttribute(&quot;data-cfemail&quot;);if(a){for(e=&quot;&quot;,r=parseInt(a.substr(0,2),16),n=2;a.length-n;n+=2)i=parseInt(a.substr(n,2),16)^r,e+=String.fromCharCode(i);e=document.createTextNode(e),c.parentNode.replaceChild(e,c)}}}catch(u){}}();/* ]]&gt; */&lt;/script&gt;","torrent":{"xt":"urn:btih:6609c90ddf82201b08700ef96a21d2851c0c8595","amp;dn":"Vanishing.On.7th.Street.2011.BDRip.XVID.AC3.HQ.Hive-CM8","amp;tr":["udp%3A%2F%2Ftracker.openbittorrent.com%3A80","udp%3A%2F%2Fopen.demonii.com%3A1337","udp%3A%2F%2Ftracker.coppersurfer.tk%3A6969","udp%3A%2F%2Fexodus.desync.com%3A6969"],"infoHash":"6609c90ddf82201b08700ef96a21d2851c0c8595","infoHashBuffer":{"type":"Buffer","data":[102,9,201,13,223,130,32,27,8,112,14,249,106,33,210,133,28,12,133,149]},"announce":[],"urlList":[]}}